#!OML:ASF I:\salsa\salsa 7_09\Patient 1\Session 1\dancerfemale.ASF
:FULLY-SPECIFIED
:DEGREES
1642
root 13.4126 15.8999 -2.15201 -1265.17 1298.64 194.841
lowerback 2.9627 -0.62723 -11.9102
upperback -6.27993 -2.37616 -6.91109
thorax -8.29099 -0.751695 -0.498335
lowerneck 12.4575 -17.8091 -17.811
upperneck 5.73524 -27.0313 15.3686
head 4.25792 -14.0274 6.31573
rclavicle -5.48646e-014 7.95139e-015
rhumerus 29.5779 -21.038 -91.013
rradius 71.9417
rwrist 8.53843
rhand -4.75425 -329.858
rfingers 7.12502
rthumb 21.0295 1.26197
lclavicle -5.48646e-014 7.95139e-015
lhumerus -50.3663 -23.8708 117.16
lradius 102.924
lwrist -2.71426
lhand -8.19651 26.412
lfingers 7.12502
lthumb 17.7198 -304.375
rfemur -34.8213 -19.1212 19.8936
rtibia 34.8093
rfoot -36.1769 -38.3591
rtoes 38.5588
lfemur -0.86643 1.92993 -26.9103
ltibia 33.4581
lfoot -14.7713 -9.08342
ltoes -46.027
1643
root 13.154 15.9144 -2.08485 -1264.96 1301.89 194.595
lowerback 2.25501 -0.819927 -11.5027
upperback -6.79337 -2.54967 -6.66377
thorax -8.42469 -0.844327 -0.456523
lowerneck 11.9347 -17.1833 -18.2589
upperneck 6.26003 -26.2602 15.5247
head 4.44649 -13.6393 6.43461
rclavicle 1.94809e-014 1.74931e-014
rhumerus 28.8464 -20.4061 -91.1036
rradius 73.3148
rwrist 8.01173
rhand -4.94119 -330.218
rfingers 7.12502
rthumb 20.8499 0.882525
lclavicle 1.94809e-014 1.74931e-014
lhumerus -50.512 -23.5141 116.982
lradius 103.181
lwrist -2.58658
lhand -10.0174 26.5511
lfingers 7.12502
lthumb 15.9669 -304.087
rfemur -34.2103 -17.5841 21.683
rtibia 34.3192
rfoot -34.6924 -37.0679
rtoes 37.5364
lfemur -2.75564 3.9207 -25.3858
ltibia 37.429
lfoot -11.368 -10.1096
ltoes -47.2042
1644
root 12.9004 15.9179 -2.02758 -1265.05 1305.64 194.403
lowerback 1.77462 -0.805029 -11.0813
upperback -7.12008 -2.47391 -6.53161
thorax -8.51047 -0.828644 -0.561986
lowerneck 11.4372 -16.7198 -18.471
upperneck 6.38211 -25.7092 16.3003
head 4.59594 -13.3592 6.70073
rclavicle -5.48646e-014 1.74931e-014
rhumerus 28.4576 -20.0531 -91.3103
rradius 74.6765
rwrist 7.38206
rhand -5.30245 -330.529
rfingers 7.12502
rthumb 20.5028 0.533984
lclavicle -5.48646e-014 1.74931e-014
lhumerus -50.6796 -23.505 116.837
lradius 103.439
lwrist -2.78572
lhand -11.0622 26.4756
lfingers 7.12502
lthumb 14.9605 -304.085
rfemur -33.1188 -15.757 23.3732
rtibia 33.7882
rfoot -33.917 -35.461
rtoes 34.58
lfemur -4.79282 5.90425 -23.9044
ltibia 42.1472
lfoot -7.47915 -10.8392
ltoes -47.7533
1645
root 12.6557 15.9043 -1.97911 -1265.41 1309.4 194.391
lowerback 1.52113 -0.833496 -10.6919
upperback -7.30267 -2.49034 -6.5119
thorax -8.56902 -0.866014 -0.756557
lowerneck 11.006 -16.8057 -17.5917
upperneck 6.10978 -25.6268 16.0894
head 4.42397 -13.2859 6.52472
rclavicle 7.35503e-014 -2.70347e-014
rhumerus 28.4156 -19.7462 -91.3359
rradius 75.9189
rwrist 6.91565
rhand -5.43918 -330.472
rfingers 7.12502
rthumb 20.3714 0.576868
lclavicle 7.35503e-014 -2.70347e-014
lhumerus -50.848 -23.7318 116.626
lradius 103.736
lwrist -3.23724
lhand -10.8422 25.8043
lfingers 7.12502
lthumb 15.1725 -304.772
rfemur -31.7544 -13.8187 24.7346
rtibia 33.2587
rfoot -33.5668 -33.7499
rtoes 31.4642
lfemur -7.02009 7.17217 -22.6196
ltibia 47.4017
lfoot -3.32655 -11.233
ltoes -47.8289
1646
root 12.4243 15.8754 -1.94646 -1265.79 1313.1 194.414
lowerback 1.53146 -1.20867 -10.6499
upperback -7.4925 -3.00266 -6.139
thorax -8.73171 -1.0992 -0.339004
lowerneck 10.59 -16.7841 -17.2398
upperneck 5.75269 -25.4623 16.0286
head 4.29823 -13.1813 6.46261
rclavicle -6.69904e-014 9.54166e-015
rhumerus 28.7454 -18.94 -91.4617
rradius 76.9019
rwrist 6.97152
rhand -5.79501 -328.606
rfingers 7.12502
rthumb 20.0294 2.40644
lclavicle -6.69904e-014 9.54166e-015
lhumerus -50.8385 -23.6304 116.639
lradius 104.072
lwrist -3.25864
lhand -11.8793 25.3179
lfingers 7.12502
lthumb 14.1733 -305.186
rfemur -30.4657 -11.7666 26.0118
rtibia 32.834
rfoot -33.0022 -32.2886
rtoes 29.5624
lfemur -9.46099 8.2567 -21.2256
ltibia 52.8946
lfoot 0.622467 -12.3479
ltoes -47.476
1647
root 12.217 15.8383 -1.91799 -1265.79 1316.97 194.339
lowerback 1.52389 -1.64253 -10.3028
upperback -7.80881 -3.59323 -5.78864
thorax -9.02621 -1.3874 -0.105548
lowerneck 10.6836 -16.8456 -17.0815
upperneck 5.05287 -25.5218 16.4439
head 4.1164 -13.2209 6.59232
rclavicle 1.09729e-013 -1.74931e-014
rhumerus 29.2871 -18.1451 -92.0052
rradius 78.2191
rwrist 6.78152
rhand -5.74183 -328.427
rfingers 7.12502
rthumb 20.0805 2.59049
lclavicle 1.09729e-013 -1.74931e-014
lhumerus -51.0376 -23.7366 116.881
lradius 104.384
lwrist -3.034
lhand -13.9568 24.9924
lfingers 7.12502
lthumb 12.1707 -305.382
rfemur -29.5961 -9.79544 27.4249
rtibia 32.4963
rfoot -32.2943 -30.6847
rtoes 28.3982
lfemur -13.0187 8.95539 -20.0425
ltibia 58.4341
lfoot 4.83542 -13.5955
ltoes -47.555
1648
root 12.0308 15.7731 -1.88632 -1265.16 1321.02 193.38
lowerback 1.855 -2.08981 -9.52086
upperback -8.16956 -4.20894 -5.29567
thorax -9.57737 -1.69991 0.0628094
lowerneck 11.7295 -17.0706 -16.8405
upperneck 3.65186 -25.8647 17.1282
head 3.65238 -13.457 6.88262
rclavicle 3.02153e-014 -1.20861e-013
rhumerus 29.6913 -17.3127 -92.4173
rradius 79.6698
rwrist 5.59764
rhand -5.4208 -326.985
rfingers 7.12502
rthumb 20.3891 4.06567
lclavicle 3.02153e-014 -1.20861e-013
lhumerus -51.4683 -23.7823 117.375
lradius 104.664
lwrist -2.92159
lhand -15.6802 24.2456
lfingers 7.12502
lthumb 10.5086 -306.037
rfemur -28.4768 -8.13393 29.2791
rtibia 32.1273
rfoot -31.5285 -28.698
rtoes 27.1478
lfemur -16.4262 9.22096 -18.4251
ltibia 63.7347
lfoot 8.98561 -15.1034
ltoes -43.8864
1649
root 11.8573 15.7045 -1.84805 -1263.23 1325.44 191.017
lowerback 2.32863 -2.60266 -8.25615
upperback -8.43714 -4.83441 -4.52435
thorax -10.1141 -2.03939 0.283599
lowerneck 13.1055 -17.5806 -16.5358
upperneck 1.62672 -26.5322 17.8998
head 3.01828 -13.878 7.21849
rclavicle 1.8487e-014 -4.45278e-014
rhumerus 30.0359 -15.8411 -92.1916
rradius 81.7249
rwrist 3.62429
rhand -4.96126 -326.917
rfingers 7.12502
rthumb 20.8306 4.18088
lclavicle 1.8487e-014 -4.45278e-014
lhumerus -51.8446 -23.6125 117.917
lradius 105.106
lwrist -2.7658
lhand -16.9435 23.4981
lfingers 7.12502
lthumb 9.28984 -306.727
rfemur -27.1862 -6.85284 31.746
rtibia 31.6273
rfoot -30.3045 -26.4104
rtoes 24.905
lfemur -19.7018 8.83637 -16.4674
ltibia 68.5463
lfoot 10.5135 -13.8249
ltoes -43.836
1650
root 11.6812 15.6495 -1.80838 -1259.79 1330.27 187.312
lowerback 2.62717 -3.0386 -6.70032
upperback -8.34905 -5.25772 -3.85554
thorax -10.1981 -2.32928 0.208606
lowerneck 13.5014 -18.6713 -15.6147
upperneck -0.16708 -27.7776 18.5178
head 2.60584 -14.5412 7.26572
rclavicle 1.43125e-014 -1.90833e-014
rhumerus 31.2448 -14.565 -92.1636
rradius 83.3192
rwrist 2.23984
rhand -5.14015 -327.798
rfingers 7.12502
rthumb 20.6587 3.28179
lclavicle 1.43125e-014 -1.90833e-014
lhumerus -51.8546 -23.9837 118.118
lradius 105.605
lwrist -2.58008
lhand -17.5267 23.3506
lfingers 7.12502
lthumb 8.72713 -306.85
rfemur -25.8778 -5.76051 34.381
rtibia 31.1174
rfoot -29.0255 -23.6793
rtoes 22.4381
lfemur -22.752 7.98823 -14.4365
ltibia 72.6467
lfoot 9.04616 -10.1069
ltoes -43.3271
1651
root 11.5206 15.5971 -1.76253 -1254.99 1335.73 182.681
lowerback 2.7703 -3.40997 -5.83532
upperback -8.4955 -5.64525 -3.04083
thorax -10.4058 -2.53912 0.657864
lowerneck 14.7036 -19.5956 -15.2382
upperneck -1.84319 -28.9902 19.2403
head 2.19274 -15.2443 7.49896
rclavicle 4.87022e-014 3.18055e-015
rhumerus 32.1277 -13.0238 -91.873
rradius 84.7095
rwrist 1.30584
rhand -5.74845 -325.589
rfingers 7.12502
rthumb 20.0742 5.42784
lclavicle 4.87022e-014 3.18055e-015
lhumerus -51.845 -23.9864 118.465
lradius 105.78
lwrist -2.38407
lhand -17.4578 23.4504
lfingers 7.12502
lthumb 8.7936 -306.753
rfemur -24.7989 -4.71959 36.4937
rtibia 30.7382
rfoot -28.1107 -19.8271
rtoes 21.2066
lfemur -26.0027 6.4618 -13.1361
ltibia 75.8737
lfoot 8.52479 -7.70075
ltoes -37.3214
1652
root 11.3679 15.5505 -1.70772 -1249.39 1341.61 177.488
lowerback 2.82157 -3.72331 -5.96527
upperback -8.58988 -6.03987 -2.35631
thorax -10.4314 -2.68808 1.50478
lowerneck 16.0085 -20.4248 -15.3229
upperneck -3.42682 -30.2443 20.7327
head 1.99959 -16.0176 7.97569
rclavicle 1.23246e-014 -9.54166e-015
rhumerus 33.0542 -11.393 -91.4831
rradius 86.159
rwrist -0.14478
rhand -6.37499 -324.646
rfingers 7.12502
rthumb 19.4718 6.30874
lclavicle 1.23246e-014 -9.54166e-015
lhumerus -52.0465 -24.0722 118.728
lradius 105.986
lwrist -2.01913
lhand -17.3525 23.3954
lfingers 7.12502
lthumb 8.89516 -306.812
rfemur -23.846 -4.39172 37.6328
rtibia 30.6211
rfoot -27.4473 -14.6628
rtoes 19.9159
lfemur -29.1738 4.90007 -12.7375
ltibia 78.2172
lfoot 7.44644 -5.09563
ltoes -35.2439
